<?xml version="1.0" encoding="UTF-8" standalone="yes"?>
<svg version="1.1" width="64" height="64" color-interpolation="linearRGB"
     xmlns:svg="http://www.w3.org/2000/svg" xmlns="http://www.w3.org/2000/svg">
 <g>
  <path style="fill:#000000; fill-opacity:0.3725"
        d="M23 54C23 54 48 51 52 48C56 47 58 48 59 47C60 46 59 45 59 45C59 45 62 43 63 42C64 41 63 38 61 37C58.47 35.73 48 37 48 37L23 54z"
  />
  <linearGradient id="gradient0" gradientUnits="userSpaceOnUse" x1="30.91" y1="167.76" x2="-58.86" y2="76.52">
   <stop offset="0.3894" stop-color="#ededed"/>
   <stop offset="0.7353" stop-color="#b5b5b5"/>
   <stop offset="0.8601" stop-color="#e9e9e9"/>
  </linearGradient>
  <path style="fill:url(#gradient0)"
        d="M38.9 17.78C41.39 17.11 45.57 13.92 48.3 13.62C49.29 13.51 50.81 13.58 51.76 13.86C53.81 14.46 55.03 16.18 55.78 18.18C56.37 19.74 57.37 22.29 57.53 26.57C57.54 26.87 57.71 27.39 57.48 27.59C57.29 27.74 57.03 27.75 56.79 27.75C55.68 27.74 53.81 27.56 52.7 27.55C52.07 27.55 51.38 27.52 50.91 27.1C50.38 26.6 50.37 25.77 50.4 25.03C49.54 23.79 47.8 23.67 46.3 23.56C44.8 23.46 43.02 23.04 42.51 21.63C42.34 21.17 42.35 20.67 42.35 20.18C42.36 18.56 38.89 19.4 38.9 17.78V17.78V17.78z"
        transform="matrix(0.9841,0,0,1.0537,-0.0259,-1.0102)"
  />
  <path style="fill:none; stroke:#010101; stroke-width:1"
        d="M38.9 17.78C41.39 17.11 45.57 13.92 48.3 13.62C49.29 13.51 50.81 13.58 51.76 13.86C53.81 14.46 55.03 16.18 55.78 18.18C56.37 19.74 57.37 22.29 57.53 26.57C57.54 26.87 57.71 27.39 57.48 27.59C57.29 27.74 57.03 27.75 56.79 27.75C55.68 27.74 53.81 27.56 52.7 27.55C52.07 27.55 51.38 27.52 50.91 27.1C50.38 26.6 50.37 25.77 50.4 25.03C49.54 23.79 47.8 23.67 46.3 23.56C44.8 23.46 43.02 23.04 42.51 21.63C42.34 21.17 42.35 20.67 42.35 20.18C42.36 18.56 38.89 19.4 38.9 17.78V17.78V17.78z"
        transform="matrix(0.9841,0,0,1.0537,-0.0259,-1.0102)"
  />
  <path style="fill:#5d5d5d"
        d="M49.16 16.43C49.54 16.42 49.93 16.42 50.3 16.52C51.06 16.75 51.64 17.48 51.7 18.28C51.79 19.36 51.01 20.3 50.18 20.97C48.53 22.27 46.5 23 44.43 23.27C43.89 23.34 43 24 42 21.91C41 20 46.15 16.54 49.16 16.43z"
        transform="matrix(0.9841,0,0,1.0537,-0.0259,-1.0102)"
  />
  <path style="fill:none; stroke:#010101; stroke-width:1"
        d="M49.16 16.43C49.54 16.42 49.93 16.42 50.3 16.52C51.06 16.75 51.64 17.48 51.7 18.28C51.79 19.36 51.01 20.3 50.18 20.97C48.53 22.27 46.5 23 44.43 23.27C43.89 23.34 43 24 42 21.91C41 20 46.15 16.54 49.16 16.43z"
        transform="matrix(0.9841,0,0,1.0537,-0.0259,-1.0102)"
  />
  <linearGradient id="gradient1" gradientUnits="userSpaceOnUse" x1="-64" y1="-64" x2="64" y2="-64">
   <stop offset="0.3894" stop-color="#78909c"/>
   <stop offset="1" stop-color="#474f53"/>
  </linearGradient>
  <path style="fill:url(#gradient1)"
        d="M2.7 41.64C0.48 41.48 0.2 47.55 3.28 50.28C5.91 52.63 9.94 53.38 13.26 53.67C24.31 54.64 35.62 49.42 37.69 48.78C39.78 48.13 50.28 44.3 54.13 42.43C55.45 41.79 57.93 40.84 58.38 39.79C58.89 38.62 58.73 35.75 58.47 33.72C58.41 33.2 58.28 32.65 57.9 32.28C57.29 31.68 56.16 32.3 55.33 32.51C52.11 33.3 50.14 34.46 47.08 35.75C45.49 36.42 43.85 36.98 42.22 37.53C34.37 40.19 26.39 42.88 18.12 43.32C12.76 43.61 8.02 42.31 2.7 41.64V41.64V41.64z"
        transform="matrix(0.9841,0,0,0.9693,-0.0259,1.6885)"
  />
  <path style="fill:none; stroke:#010101; stroke-width:1"
        d="M2.7 41.64C0.48 41.48 0.2 47.55 3.28 50.28C5.91 52.63 9.94 53.38 13.26 53.67C24.31 54.64 35.62 49.42 37.69 48.78C39.78 48.13 50.28 44.3 54.13 42.43C55.45 41.79 57.93 40.84 58.38 39.79C58.89 38.62 58.73 35.75 58.47 33.72C58.41 33.2 58.28 32.65 57.9 32.28C57.29 31.68 56.16 32.3 55.33 32.51C52.11 33.3 50.14 34.46 47.08 35.75C45.49 36.42 43.85 36.98 42.22 37.53C34.37 40.19 26.39 42.88 18.12 43.32C12.76 43.61 8.02 42.31 2.7 41.64V41.64V41.64z"
        transform="matrix(0.9841,0,0,0.9693,-0.0259,1.6885)"
  />
  <linearGradient id="gradient2" gradientUnits="userSpaceOnUse" x1="-1.47" y1="163.57" x2="-66.87" y2="53.53">
   <stop offset="0.4763" stop-color="#0287d1"/>
   <stop offset="0.6294" stop-color="#10537a"/>
   <stop offset="0.7674" stop-color="#0287d1"/>
  </linearGradient>
  <path style="fill:url(#gradient2)"
        d="M27.34 18.32C27.81 15.5 29.47 12.76 32.31 12.44C34.46 12.19 41.7 13.28 43.18 14.86C46.24 18.12 42.37 21.45 42.52 22.01C42.72 22.78 43.87 23.26 45.28 22.92C46.53 22.62 47.2 22.04 48.5 21.65C49.79 21.26 50.8 22.39 51.4 23.58C52.19 25.16 53.58 25.45 55.03 25.51C55.67 25.53 56.73 25.48 57.21 25.71C57.69 25.94 57.99 26.62 58.13 27.12C58.87 29.77 59.26 33.23 57.72 35.5C55.82 38.31 43.06 42.15 39.55 43.57C36.21 44.93 27.32 47.92 23.74 47.54C23.47 47.51 23.19 47.46 23.01 47.27C22.77 47.02 22.8 46.63 22.83 46.29C23.06 43.94 16.79 34.12 15.01 33.29C14.63 33.12 14.22 32.82 14.24 32.41C14.25 32.16 14.2 31.91 14.41 31.78C15.6 31.04 16.01 30.42 16.89 29.54C17.4 29.03 17.61 28.21 18.46 27.41C18.95 26.94 20.25 26.49 20.65 26.01C21.16 25.41 21.36 24.9 21.91 24.32C22.9 23.26 23.54 23.33 24.27 22.57C24.66 22.16 24.95 21.26 25.31 20.65C25.7 20.03 27.15 19.09 27.34 18.32V18.32V18.32z"
        transform="matrix(0.9841,0,0,1.0537,-0.0259,-1.0102)"
  />
  <path style="fill:none; stroke:#010101; stroke-width:1"
        d="M27.34 18.32C27.81 15.5 29.47 12.76 32.31 12.44C34.46 12.19 41.7 13.28 43.18 14.86C46.24 18.12 42.37 21.45 42.52 22.01C42.72 22.78 43.87 23.26 45.28 22.92C46.53 22.62 47.2 22.04 48.5 21.65C49.79 21.26 50.8 22.39 51.4 23.58C52.19 25.16 53.58 25.45 55.03 25.51C55.67 25.53 56.73 25.48 57.21 25.71C57.69 25.94 57.99 26.62 58.13 27.12C58.87 29.77 59.26 33.23 57.72 35.5C55.82 38.31 43.06 42.15 39.55 43.57C36.21 44.93 27.32 47.92 23.74 47.54C23.47 47.51 23.19 47.46 23.01 47.27C22.77 47.02 22.8 46.63 22.83 46.29C23.06 43.94 16.79 34.12 15.01 33.29C14.63 33.12 14.22 32.82 14.24 32.41C14.25 32.16 14.2 31.91 14.41 31.78C15.6 31.04 16.01 30.42 16.89 29.54C17.4 29.03 17.61 28.21 18.46 27.41C18.95 26.94 20.25 26.49 20.65 26.01C21.16 25.41 21.36 24.9 21.91 24.32C22.9 23.26 23.54 23.33 24.27 22.57C24.66 22.16 24.95 21.26 25.31 20.65C25.7 20.03 27.15 19.09 27.34 18.32V18.32V18.32z"
        transform="matrix(0.9841,0,0,1.0537,-0.0259,-1.0102)"
  />
  <linearGradient id="gradient3" gradientUnits="userSpaceOnUse" x1="30.91" y1="167.76" x2="-58.86" y2="76.52">
   <stop offset="0.3894" stop-color="#ededed"/>
   <stop offset="0.7353" stop-color="#b5b5b5"/>
   <stop offset="0.8601" stop-color="#e9e9e9"/>
  </linearGradient>
  <path style="fill:url(#gradient3)"
        d="M13.85 31.54C9.8 34.16 7.16 35.38 3.06 39.75C2.39 40.47 2.01 42.15 2.15 43.13C2.31 44.23 3.09 45.15 3.95 45.84C6.65 47.99 9.82 48.5 13.26 48.73C16.95 48.98 21.61 48.66 25.38 48.04C26.16 47.91 27.07 47.16 27.23 46.49C27.59 45.01 27.34 42.01 27.32 40.8C27.29 38.77 26.97 37.74 26 36.57C24.66 34.95 22.82 34.14 20.67 33.24C18.52 32.34 15.65 30.62 13.85 31.54V31.54V31.54z"
        transform="matrix(0.9841,0,0,1.0537,-0.0259,-1.0102)"
  />
  <path style="fill:none; stroke:#010101; stroke-width:1"
        d="M13.85 31.54C9.8 34.16 7.16 35.38 3.06 39.75C2.39 40.47 2.01 42.15 2.15 43.13C2.31 44.23 3.09 45.15 3.95 45.84C6.65 47.99 9.82 48.5 13.26 48.73C16.95 48.98 21.61 48.66 25.38 48.04C26.16 47.91 27.07 47.16 27.23 46.49C27.59 45.01 27.34 42.01 27.32 40.8C27.29 38.77 26.97 37.74 26 36.57C24.66 34.95 22.82 34.14 20.67 33.24C18.52 32.34 15.65 30.62 13.85 31.54V31.54V31.54z"
        transform="matrix(0.9841,0,0,1.0537,-0.0259,-1.0102)"
  />
  <linearGradient id="gradient4" gradientUnits="userSpaceOnUse" x1="32.71" y1="-103.76" x2="122.74" y2="-12.77">
   <stop offset="0.5803" stop-color="#ffffff"/>
   <stop offset="0.826" stop-color="#8a8a8a"/>
  </linearGradient>
  <path style="fill:url(#gradient4)"
        d="M26.67 21.84C26.84 21.59 27.04 21.38 27.28 21.2C27.43 21.09 27.59 21.02 27.78 20.97C29.79 20.39 32.18 21.14 34.13 21.69C35.38 22.04 39.19 23.25 37.85 25.26C37.5 25.78 36.8 26.12 36.18 26.09C35.29 26.04 34.65 25.38 33.9 24.98C33.05 24.54 32.22 24.13 31.31 23.82C30.57 23.56 29.83 23.33 29.08 23.13C28.42 22.96 27.84 22.99 27.17 22.92C27 22.9 26.86 22.94 26.7 22.85C26.35 22.66 26.51 22.11 26.67 21.84V21.84V21.84z"
        transform="matrix(0.9841,0,0,1.0537,-0.0259,-1.0102)"
  />
  <path style="fill:none; stroke:#010101; stroke-width:1"
        d="M26.67 21.84C26.84 21.59 27.04 21.38 27.28 21.2C27.43 21.09 27.59 21.02 27.78 20.97C29.79 20.39 32.18 21.14 34.13 21.69C35.38 22.04 39.19 23.25 37.85 25.26C37.5 25.78 36.8 26.12 36.18 26.09C35.29 26.04 34.65 25.38 33.9 24.98C33.05 24.54 32.22 24.13 31.31 23.82C30.57 23.56 29.83 23.33 29.08 23.13C28.42 22.96 27.84 22.99 27.17 22.92C27 22.9 26.86 22.94 26.7 22.85C26.35 22.66 26.51 22.11 26.67 21.84V21.84V21.84z"
        transform="matrix(0.9841,0,0,1.0537,-0.0259,-1.0102)"
  />
  <linearGradient id="gradient5" gradientUnits="userSpaceOnUse" x1="32.71" y1="-103.76" x2="122.74" y2="-12.77">
   <stop offset="0.5803" stop-color="#ffffff"/>
   <stop offset="0.826" stop-color="#8a8a8a"/>
  </linearGradient>
  <path style="fill:url(#gradient5)"
        d="M23.07 25.16C23.59 24.52 24.32 24.37 25.08 24.34C25.35 24.32 25.63 24.33 25.9 24.33C27.57 24.33 29.22 24.71 30.72 25.44C31.72 25.93 32.82 26.43 33.54 27.3C33.96 27.81 34.39 28.3 34.19 29.01C33.55 31.28 30.69 28.7 29.77 28.22C28.97 27.8 27.99 27.3 27.14 27.04C26.7 26.91 26.24 26.88 25.82 26.76C24.99 26.53 24.2 26.48 23.37 26.36C22.65 26.25 22.71 25.62 23.07 25.16V25.16V25.16z"
        transform="matrix(0.9841,0,0,1.0537,-0.0259,-1.0102)"
  />
  <path style="fill:none; stroke:#010101; stroke-width:1"
        d="M23.07 25.16C23.59 24.52 24.32 24.37 25.08 24.34C25.35 24.32 25.63 24.33 25.9 24.33C27.57 24.33 29.22 24.71 30.72 25.44C31.72 25.93 32.82 26.43 33.54 27.3C33.96 27.81 34.39 28.3 34.19 29.01C33.55 31.28 30.69 28.7 29.77 28.22C28.97 27.8 27.99 27.3 27.14 27.04C26.7 26.91 26.24 26.88 25.82 26.76C24.99 26.53 24.2 26.48 23.37 26.36C22.65 26.25 22.71 25.62 23.07 25.16V25.16V25.16z"
        transform="matrix(0.9841,0,0,1.0537,-0.0259,-1.0102)"
  />
  <linearGradient id="gradient6" gradientUnits="userSpaceOnUse" x1="32.71" y1="-103.76" x2="122.74" y2="-12.77">
   <stop offset="0.5803" stop-color="#ffffff"/>
   <stop offset="0.826" stop-color="#8a8a8a"/>
  </linearGradient>
  <path style="fill:url(#gradient6)"
        d="M19.34 28.71C19.72 28.06 20.61 27.89 21.29 27.81C21.3 27.81 21.31 27.81 21.33 27.81C22.74 27.66 24.35 28.12 25.7 28.52C26.17 28.66 26.71 28.8 27.16 28.99C28.14 29.41 29.23 29.99 29.96 30.77C31.06 31.95 29.76 32.88 28.41 32.75C28.17 32.73 28 32.63 27.78 32.56C27.45 32.46 27.1 32.44 26.77 32.35C25.8 32.08 24.9 31.67 24.03 31.19C23.58 30.94 23.12 30.79 22.64 30.59C22.07 30.36 21.52 30.2 20.94 29.99C20.48 29.82 19.74 29.85 19.36 29.53C19.12 29.34 19.2 28.95 19.34 28.71V28.71V28.71z"
        transform="matrix(0.9841,0,0,1.0537,-0.0259,-1.0102)"
  />
  <path style="fill:none; stroke:#010101; stroke-width:1"
        d="M19.34 28.71C19.72 28.06 20.61 27.89 21.29 27.81C21.3 27.81 21.31 27.81 21.33 27.81C22.74 27.66 24.35 28.12 25.7 28.52C26.17 28.66 26.71 28.8 27.16 28.99C28.14 29.41 29.23 29.99 29.96 30.77C31.06 31.95 29.76 32.88 28.41 32.75C28.17 32.73 28 32.63 27.78 32.56C27.45 32.46 27.1 32.44 26.77 32.35C25.8 32.08 24.9 31.67 24.03 31.19C23.58 30.94 23.12 30.79 22.64 30.59C22.07 30.36 21.52 30.2 20.94 29.99C20.48 29.82 19.74 29.85 19.36 29.53C19.12 29.34 19.2 28.95 19.34 28.71V28.71V28.71z"
        transform="matrix(0.9841,0,0,1.0537,-0.0259,-1.0102)"
  />
 </g>
</svg>
